<svg width="100" height="50" viewBox="0 0 70 37" fill="none"
    xmlns="http://www.w3.org/2000/svg">
    <g filter="url(#filter0_d_133_37)">
        <path d="M57.097 11.7431H56.6861V11.8047H56.8505V12.2768H56.9323V11.8047H57.097V11.7431ZM43.9153 18.6548V9.7032H42.5712V13.4359H38.4754V9.7032H37.1399V18.6548H38.4754V14.7378H42.5712V18.6548H43.9153ZM44.9217 12.1645V15.6915C44.9217 16.7684 45.1171 17.5585 45.5182 18.0196C45.8974 18.4698 46.5132 18.7065 47.354 18.7259H47.6628C48.5048 18.7065 49.1207 18.4699 49.5005 18.0196C49.8797 17.5681 50.096 16.7684 50.096 15.6915V12.1645H48.8224V15.6925H48.8329C48.8329 16.3591 48.7307 16.83 48.5356 17.0965C48.3506 17.3428 48.0219 17.4766 47.5501 17.4766H47.4879C47.0161 17.4766 46.6776 17.3428 46.492 17.0965C46.2975 16.8306 46.1946 16.3591 46.1946 15.6925V12.1645H44.9217ZM52.8364 13.651C53.1039 13.3743 53.5252 13.2509 54.0583 13.2509C54.6021 13.2509 55.0127 13.3842 55.29 13.6612C55.567 13.9382 55.7114 14.3992 55.7114 15.0351V15.7636C55.7114 16.2862 55.567 16.7165 55.2688 17.0245C54.9715 17.3323 54.572 17.4856 54.0583 17.4856C53.5452 17.4856 53.1347 17.3323 52.8574 17.0251C52.5803 16.7165 52.4265 16.296 52.4265 15.7636V15.0246C52.4265 14.3894 52.5699 13.9277 52.8364 13.651ZM51.1332 9.72319V15.7531C51.1332 16.6345 51.3991 17.3631 51.9233 17.9069C52.4468 18.4504 53.1655 18.7268 54.0688 18.7268C54.9715 18.7268 55.7006 18.4504 56.2251 17.9069C56.7476 17.3624 57.0151 16.6355 57.0151 15.7531V15.0246C57.0044 13.0157 56.0087 11.9893 54.0583 11.9893C53.3704 11.9893 52.8266 12.2054 52.4265 12.615V9.7238H51.1332L51.1332 9.72319ZM12.3287 15.9993V16.1332C12.3108 16.8713 12.6609 17.5705 13.2629 17.9993C13.8787 18.4504 14.7312 18.6862 15.819 18.6862C16.908 18.6862 17.7895 18.4603 18.3955 17.9993C19.0012 17.5739 19.3521 16.8722 19.3293 16.1323V15.9485C19.3407 15.4613 19.1813 14.9858 18.8784 14.6051C18.5589 14.2281 18.1388 13.9508 17.6667 13.8052L14.5562 12.7692C14.3726 12.7117 14.2041 12.6135 14.0634 12.4821C13.9602 12.3947 13.8974 12.2685 13.8892 12.1334V11.9287C13.8892 11.1999 14.4945 10.8312 15.7367 10.8106H15.8502C17.0918 10.8106 17.7283 11.139 17.8003 11.8056L17.8111 11.9075H19.1446V11.7948C19.0831 10.2775 17.9745 9.49789 15.8502 9.49789H15.7163C13.6324 9.51852 12.5856 10.3384 12.5856 11.9287V12.1334C12.5815 12.5559 12.7269 12.9665 12.9959 13.2925C13.2629 13.61 13.6636 13.8563 14.1664 14.0203L17.2454 15.0554C17.7692 15.2296 18.0262 15.5174 18.0262 15.9485V16.1332C18.0262 16.5124 17.8415 16.7992 17.462 17.0245C17.0816 17.2504 16.5169 17.3735 15.819 17.3735C15.1208 17.3735 14.5768 17.2603 14.1972 17.0245C13.8172 16.7887 13.653 16.5124 13.653 16.1332V15.9993H12.3287ZM57.7125 12.2768V11.7441H57.5796L57.4355 12.1232L57.2921 11.7441H57.169V12.2768H57.2404V11.8361L57.4152 12.2768H57.4663L57.6306 11.8361V12.2768H57.7125ZM23.0361 13.4762V12.1645H21.6499V9.7238H20.3563V15.7734C20.3563 16.6558 20.6235 17.3843 21.1474 17.9278C21.6176 18.4018 22.2464 18.6862 22.9127 18.7278L23.0361 18.7382V17.4871L22.9432 17.4766C22.6151 17.4295 22.3116 17.2748 22.0811 17.0359C21.7934 16.7278 21.6499 16.3074 21.6499 15.7734V13.4771H23.0361V13.4762ZM31.9567 13.651C32.2232 13.3743 32.6437 13.2509 33.178 13.2509C33.7227 13.2509 34.133 13.3842 34.4097 13.6612C34.6873 13.9382 34.831 14.3992 34.831 15.0351V15.7636C34.831 16.296 34.6873 16.7069 34.3893 17.0245C34.0914 17.3422 33.7018 17.4856 33.1773 17.4856C32.6541 17.4856 32.2543 17.3323 31.977 17.0251C31.7 16.7165 31.5458 16.296 31.5458 15.7636V15.0246C31.5458 14.3894 31.6895 13.9277 31.9567 13.651ZM30.2519 9.72319V15.7531C30.2519 16.6345 30.5194 17.3631 31.0426 17.9069C31.5664 18.4504 32.2847 18.7268 33.1884 18.7268C34.0914 18.7268 34.8205 18.4504 35.3443 17.9069C35.8679 17.3624 36.135 16.6355 36.135 15.7531V15.0246C36.1239 13.0157 35.1391 11.9893 33.1779 11.9893C32.49 11.9893 31.9465 12.2054 31.5458 12.615V9.7238H30.2525L30.2519 9.72319ZM24.0518 12.1645V15.6915C24.0518 16.7684 24.247 17.5585 24.6477 18.0196C25.0272 18.4698 25.643 18.7065 26.4845 18.7259H26.7827C27.6242 18.7065 28.2406 18.4699 28.6198 18.0196C29.01 17.5477 29.2163 16.7684 29.2163 15.6915V12.1645H27.9525V15.6925C27.9525 16.3591 27.8504 16.8405 27.6546 17.0965C27.4601 17.3535 27.1418 17.4766 26.6596 17.4766H26.6187C26.1462 17.4766 25.807 17.3428 25.6233 17.0965C25.4279 16.8306 25.3251 16.3591 25.3251 15.6925V12.1645H24.0518Z" fill="#E4EEF3" />
        <mask id="mask0_133_37" maskUnits="userSpaceOnUse" x="4" y="0" width="62" height="29">
            <path d="M4 0H66V28.0496H4V0Z" fill="white" />
        </mask>
        <g mask="url(#mask0_133_37)">
            <path d="M57.4359 12.1232L57.2915 11.7441H57.1684V12.2771H57.2414V11.8364L57.415 12.2771H57.4667L57.631 11.8364V12.2771H57.7129V11.7441H57.58L57.4359 12.1232ZM56.6865 11.8056H56.8508V12.2771H56.9327V11.8056H57.0974V11.7441H56.6865V11.8056ZM22.0815 17.035C21.7937 16.7273 21.65 16.3074 21.65 15.7734V13.4762H23.0359V12.1645H21.65V9.72383H20.3567V15.7744C20.3567 16.6559 20.6239 17.3844 21.1477 17.9279C21.6183 18.4019 22.2468 18.6862 22.9131 18.7278L23.0365 18.7383V17.4871L22.9436 17.4773C22.6155 17.4305 22.3117 17.2757 22.0815 17.0365V17.035ZM17.6671 13.8046L14.5566 12.7693C14.3727 12.7117 14.204 12.6135 14.0638 12.4812C13.961 12.3938 13.8977 12.2682 13.8896 12.1334V11.9278C13.8896 11.1999 14.4957 10.8312 15.737 10.8109H15.8506C17.0922 10.8109 17.7286 11.139 17.8007 11.8057L17.8114 11.9075H19.146V11.7949C19.0844 10.2769 17.9749 9.49794 15.8506 9.49794H15.7167C13.6328 9.51857 12.586 10.3391 12.586 11.9287V12.1334C12.5819 12.556 12.727 12.9665 12.9963 13.2925C13.2633 13.6101 13.664 13.8563 14.1665 14.0204L17.2467 15.0564C17.7696 15.2297 18.0265 15.5174 18.0265 15.9486V16.1333C18.0265 16.5124 17.8419 16.7993 17.4618 17.0246C17.082 17.2505 16.5172 17.373 15.8197 17.373C15.1212 17.373 14.5771 17.2609 14.1975 17.0246C13.8176 16.7888 13.6531 16.5124 13.6531 16.1333V15.9993H12.33V16.1333C12.3121 16.8713 12.6617 17.5706 13.2633 17.9993C13.8799 18.4505 14.7315 18.6862 15.8204 18.6862C16.9084 18.6862 17.7911 18.4603 18.3971 17.9993C19.0025 17.574 19.3534 16.8722 19.3306 16.1333V15.9486C19.342 15.4614 19.1822 14.9859 18.8794 14.6051C18.5596 14.2281 18.1392 13.9508 17.6671 13.8046ZM48.8333 15.6925C48.8333 16.3585 48.7311 16.83 48.536 17.0966C48.351 17.3428 48.0223 17.4758 47.5505 17.4758H47.4883C47.0165 17.4758 46.6779 17.3422 46.4924 17.0966C46.2978 16.83 46.195 16.3576 46.195 15.6925V12.1635H44.9221V15.6925C44.9221 16.7685 45.1181 17.5576 45.5176 18.0196C45.8977 18.4699 46.5136 18.7066 47.3554 18.7269H47.6632C48.5052 18.7066 49.1211 18.4699 49.5002 18.0196C49.8809 17.569 50.0964 16.7685 50.0964 15.6925V12.1635H48.8235V15.6925H48.8333ZM27.9539 15.6925C27.9539 16.3585 27.8501 16.8399 27.6556 17.0966C27.4605 17.3526 27.1422 17.4758 26.66 17.4758H26.619C26.1466 17.4758 25.8074 17.3422 25.6227 17.0966C25.4282 16.83 25.3255 16.3576 25.3255 15.6925V12.1635H24.0522V15.6925C24.0522 16.7685 24.2464 17.5576 24.6481 18.0196C25.0275 18.4699 25.6434 18.7066 26.4858 18.7269H26.784C27.6245 18.7066 28.241 18.4699 28.6202 18.0196C29.0104 17.5478 29.2166 16.7685 29.2166 15.6925V12.1635H27.9539V15.6925ZM54.0586 13.2509C54.6031 13.2509 55.0131 13.3842 55.2904 13.6612C55.5674 13.9382 55.7117 14.3999 55.7117 15.0351V15.7636C55.7117 16.2862 55.5674 16.7165 55.2701 17.0246C54.9718 17.3323 54.5724 17.4863 54.0577 17.4863C53.5456 17.4863 53.135 17.3323 52.8577 17.0246C52.5798 16.7165 52.4269 16.297 52.4269 15.7636V15.0246C52.4269 14.3894 52.5694 13.9277 52.8378 13.651C53.1042 13.3744 53.5247 13.2509 54.0586 13.2509ZM54.0586 11.9903C53.3708 11.9903 52.827 12.2054 52.4268 12.6151V9.72383H51.132V15.7531C51.132 16.6355 51.3995 17.3631 51.9227 17.906C52.4462 18.4505 53.1649 18.7269 54.0685 18.7269C54.9718 18.7269 55.7003 18.4505 56.2239 17.906C56.7471 17.3631 57.0145 16.6355 57.0145 15.7531V15.0246C57.0041 13.0158 56.0081 11.9903 54.0577 11.9903H54.0586ZM42.5722 13.4359H38.4757V9.70323H37.1412V18.6548H38.4757V14.7378H42.5722V18.6548H43.9156V9.70323H42.5716V13.4359H42.5722ZM33.1783 13.2509C33.7231 13.2509 34.1333 13.3842 34.41 13.6612C34.6876 13.9382 34.8314 14.3999 34.8314 15.0351V15.7636C34.8314 16.297 34.6876 16.7069 34.3897 17.0246C34.0918 17.3422 33.7021 17.4863 33.1783 17.4863C32.6554 17.4863 32.2547 17.3323 31.9774 17.0246C31.7004 16.7165 31.5462 16.297 31.5462 15.7636V15.0246C31.5462 14.3894 31.6899 13.9277 31.9571 13.651C32.2236 13.3744 32.644 13.2509 33.1783 13.2509ZM33.1783 11.9903C32.4913 11.9903 31.9469 12.2054 31.5462 12.6151V9.72383H30.2529V15.7531C30.2529 16.6355 30.5207 17.3631 31.0439 17.906C31.5677 18.4505 32.2861 18.7269 33.1894 18.7269C34.093 18.7269 34.8218 18.4505 35.3456 17.906C35.8683 17.3631 36.1363 16.6355 36.1363 15.7531V15.0246C36.1249 13.0158 35.1397 11.9903 33.1789 11.9903H33.1783ZM5.26638 26.8586C4.95844 26.9817 4.78392 26.8287 4.88641 26.5101L5.75895 23.6907C5.8679 23.3072 5.90654 22.9071 5.87251 22.511L4.00434 4.72942C3.9691 4.40947 4.2004 4.12095 4.52048 4.08615C4.52141 4.08615 4.52218 4.08615 4.52295 4.08569L4.54803 4.0837L65.443 0.00198887C65.7258 -0.0222994 65.9745 0.187111 65.9988 0.469526C66.0019 0.501553 66.0013 0.534024 65.9979 0.566005L63.5243 27.4849C63.4871 27.8204 63.1938 28.0685 62.8565 28.0491L11.1176 24.7251C10.7188 24.7131 10.3213 24.7796 9.94779 24.9196L5.26638 26.8595V26.8586Z" fill="#3F1D74" />
        </g>
    </g>
    <defs>
        <filter id="filter0_d_133_37" x="0.000793457" y="7.24792e-05" width="69.9992" height="36.0496" filterUnits="userSpaceOnUse" color-interpolation-filters="sRGB">
            <feFlood flood-opacity="0" result="BackgroundImageFix" />
            <feColorMatrix in="SourceAlpha" type="matrix" values="0 0 0 0 0 0 0 0 0 0 0 0 0 0 0 0 0 0 127 0" result="hardAlpha" />
            <feOffset dy="4" />
            <feGaussianBlur stdDeviation="2" />
            <feComposite in2="hardAlpha" operator="out" />
            <feColorMatrix type="matrix" values="0 0 0 0 0 0 0 0 0 0 0 0 0 0 0 0 0 0 0.05 0" />
            <feBlend mode="normal" in2="BackgroundImageFix" result="effect1_dropShadow_133_37" />
            <feBlend mode="normal" in="SourceGraphic" in2="effect1_dropShadow_133_37" result="shape" />
        </filter>
    </defs>
</svg>